# xmcd
#
# Track frame offsets: 
#        150
#        14207
#        29277
#        43574
#        63435
#        76484
#        103134
#        116682
#        131999
#        151351
#        161857
#        176645
#
# Disc length: 2563 seconds
#
# Revision: 1
# Processed by: cddbd v1.5.2PL0 Copyright (c) Steve Scherf et al.
# Submitted via: ExactAudioCopy v0.99pb4
#
DISCID=a90a010c
DTITLE=Hot Club of Cowtown - Ghost Train
DYEAR=2002
DGENRE=Western Swing
TTITLE0=Sleep
TTITLE1=Forget-Me-Nots
TTITLE2=Home
TTITLE3=It Stops with Me
TTITLE4=Secret of Mine
TTITLE5=Paradise with You
TTITLE6=Fuli Tschai (Bad Girl)
TTITLE7=You Took Advantage of Me
TTITLE8=Before You
TTITLE9=Cherokee Shuffle
TTITLE10=Chip Away the Stone
TTITLE11=Pray for the Lights to Go Out
EXTD=Elana Fremerman: violin, lead vocals\nWhit Smith: guitar, lead vo
EXTD=cals\nJake Erwin: double bass, vocals\nJoe Kerr (tracks 1,3,4,9,1
EXTD=2): piano\nProduced, engineered, mixed and mastered by Gurf Morli
EXTD=x at Rootball Studio, Austin US-TX, 2002-04-29/05-24.\nCD: Highto
EXTD=ne HCD8147 (2002-09-17), UPC 012928814720.
EXTT0=(Whit Smith/Dave Stuckey)
EXTT1=(Elana Fremerman)
EXTT2=(Elana Fremerman)
EXTT3=(Whit Smith)
EXTT4=(Elana Fremerman)
EXTT5=(Whit Smith/Dave Stuckey)
EXTT6=(trad. - arr. Schnuckenack Reinhardt/Hot Club of Cowtown)
EXTT7=(Richard Rodgers//Lorenz Hart)
EXTT8=(Elana Fremerman)
EXTT9=(trad.)
EXTT10=(Richard Supa)
EXTT11=(Will E. Skidmore)
PLAYORDER=
